<?xml version="1.0" encoding="UTF-8"?>
<svg id="Layer_1" data-name="Layer 1" xmlns="http://www.w3.org/2000/svg" viewBox="0 0 246 242">
  <defs>
    <style>
      .cls-1 {
        fill: #fff;
      }

      .cls-2 {
        fill: #dbd0bc;
      }

      .cls-3 {
        fill: #6bd1d1;
      }

      .cls-4 {
        fill: #3ea9ab;
      }

      .cls-5 {
        fill: #2a5e74;
      }

      .cls-6 {
        fill: #eae5d8;
      }

      .cls-7 {
        fill: #2d748d;
      }

      .cls-8 {
        fill: #90dddb;
      }

      .cls-9 {
        fill: #1ec1bc;
      }

      .cls-10 {
        fill: #328ea8;
      }

      .cls-11 {
        fill: #f9f7f6;
      }

      .cls-12 {
        fill: #f3eee6;
      }

      .cls-13 {
        fill: #8e8e1b;
      }

      .cls-14 {
        fill: #5fb2c8;
      }

      .cls-15 {
        fill: #a9b22f;
      }

      .cls-16 {
        fill: #bfaf94;
      }
    </style>
  </defs>
  <rect class="cls-5" x="1.5" y="-.5" width="242.9" height="242.9" rx="47" ry="47"/>
  <g>
    <path class="cls-4" d="m64,39.6c3.4-4.7,4.5-8.6,2.8-10.9-2-2.9-7.8-2.6-15.1.3-1.8-7.6-4.9-12.5-8.4-12.5s-6.6,4.9-8.4,12.5c-7.3-2.9-13.1-3.2-15.1-.3-2.3,3.3.9,9.7,7.7,16.5-1.9,1.9-3.5,3.7-4.8,5.6-3.4,4.7-4.5,8.6-2.8,10.9,1,1.4,2.8,2.1,5.2,2.1s6.1-.8,9.9-2.3c1.8,7.6,4.9,12.5,8.5,12.5s6.6-4.9,8.5-12.5c3.8,1.5,7.2,2.3,9.9,2.3s4.3-.7,5.2-2.1c2.3-3.3-.9-9.7-7.7-16.5,1.9-1.9,3.5-3.7,4.8-5.6Zm-2.3-12c2.1,0,3.6.5,4.4,1.7,1.3,1.9.3,5.5-2.8,9.8-1.3,1.8-2.9,3.6-4.7,5.5-1.6-1.5-3.3-3-5.2-4.6-.2-3.7-.7-7-1.3-10.1,3.8-1.5,7.2-2.3,9.7-2.3Zm-8.3,13.7c1.6,1.3,3.1,2.6,4.4,4-1.4,1.3-2.9,2.6-4.4,3.9,0-1.3,0-2.6,0-4s0-2.7,0-3.9Zm-.8,3.9c0,1.6,0,3.2-.1,4.7-1.2,1-2.5,1.9-3.8,2.8-1.8,1.2-3.5,2.4-5.3,3.4-1.8-1-3.5-2.2-5.3-3.4-1.3-.9-2.6-1.9-3.8-2.8,0-1.5-.1-3.1-.1-4.7s0-3.2.1-4.7c1.2-1,2.5-1.9,3.8-2.8,1.8-1.2,3.5-2.4,5.3-3.4,1.8,1,3.5,2.2,5.3,3.4,1.3.9,2.6,1.9,3.8,2.8,0,1.5.1,3.1.1,4.7Zm-.2-6c-1-.8-2.1-1.6-3.2-2.3-1.6-1.2-3.3-2.2-4.9-3.2,2.3-1.3,4.6-2.5,6.8-3.4.6,2.7,1,5.7,1.3,8.9Zm-9-21.8c3.1,0,5.8,4.8,7.5,11.9-2.4,1-4.9,2.3-7.5,3.8-2.6-1.5-5.1-2.8-7.5-3.8,1.7-7.2,4.5-11.9,7.5-11.9Zm-7.8,12.9c2.2.9,4.5,2.1,6.8,3.4-1.6,1-3.3,2-4.9,3.2-1.1.8-2.2,1.5-3.2,2.3.2-3.2.7-6.2,1.3-8.9Zm-15-1c.8-1.1,2.3-1.7,4.4-1.7s5.9.8,9.7,2.3c-.7,3-1.1,6.4-1.3,10.1-1.9,1.5-3.6,3-5.2,4.5-6.3-6.3-9.6-12.4-7.6-15.3Zm12.7,19.9c-1.6-1.3-3.1-2.6-4.4-4,1.4-1.3,2.9-2.6,4.4-3.9,0,1.3,0,2.6,0,4s0,2.7,0,3.9Zm-12.7,12c-1.3-1.9-.3-5.5,2.8-9.8,1.3-1.8,2.9-3.6,4.7-5.5,1.6,1.5,3.3,3,5.2,4.6.2,3.7.7,7,1.3,10.1-6.8,2.7-12.3,3.2-14.1.7Zm13.8-10c1,.8,2.1,1.6,3.2,2.3,1.6,1.2,3.3,2.2,4.9,3.2-2.3,1.3-4.6,2.5-6.8,3.4-.6-2.7-1-5.7-1.3-8.9Zm9,21.8c-3.1,0-5.8-4.8-7.5-11.9,2.4-1,4.9-2.3,7.5-3.8,2.6,1.5,5.1,2.8,7.5,3.8-1.7,7.2-4.5,11.9-7.5,11.9Zm7.8-12.9c-2.2-.9-4.5-2-6.8-3.4,1.6-1,3.3-2,4.9-3.2,1.1-.8,2.2-1.5,3.2-2.3-.2,3.2-.7,6.2-1.3,8.9Zm15,1.1c-1.8,2.5-7.3,2-14.1-.7.7-3,1.1-6.4,1.3-10.1,1.9-1.5,3.6-3,5.2-4.5,6.3,6.3,9.6,12.4,7.6,15.3Z"/>
    <path class="cls-3" d="m25,38.9c0,1.4-1.1,2.5-2.5,2.5s-2.5-1.1-2.5-2.5,1.1-2.5,2.5-2.5,2.5,1.1,2.5,2.5Z"/>
    <path class="cls-3" d="m67.6,53.1c0,1.4-1.1,2.5-2.5,2.5s-2.5-1.1-2.5-2.5,1.1-2.5,2.5-2.5,2.5,1.1,2.5,2.5Z"/>
    <path class="cls-3" d="m60.7,27.6c0,1.4-1.1,2.5-2.5,2.5s-2.5-1.1-2.5-2.5,1.1-2.5,2.5-2.5,2.5,1.1,2.5,2.5Z"/>
    <path class="cls-3" d="m39.9,67.6c0,1.4-1.1,2.5-2.5,2.5s-2.5-1.1-2.5-2.5,1.1-2.5,2.5-2.5,2.5,1.1,2.5,2.5Z"/>
  </g>
  <g>
    <g>
      <path class="cls-7" d="m133.6,60.2l-.2,8.5c-13.9,6.8-26.2-.7-26.2-.7l.2-7.2c7.4,3.7,12.8,6.4,12.8,6.4,3.8-2.5,8.5-4.8,13.4-7Z"/>
      <path class="cls-10" d="m142.3,39.9c7.9,4.3,17.8,8,28.6,8.3,0,0-20.3,4.7-37.3,12.1-4.9,2.1-9.6,4.5-13.4,7,0,0-5.4-2.7-12.8-6.4-9.9-4.9-23.4-11.5-32.4-15.7,0,0,0,0,0,0,0,0,0,0,.2,0,0,0,0,0,0,0,.6-.1,2.3-.4,4.7-1,13.4-2.7,50.1-9.2,62.3-4.2Z"/>
      <path class="cls-14" d="m80,44.1c9.8-2.2,31.7-7.9,43.5-18,0,0,7.3,7.5,18.8,13.8-12.2-5-48.9,1.5-62.3,4.2Z"/>
    </g>
    <path class="cls-9" d="m150,66.9c0,0-.2,0-.2-.2-8.9-21.5-28.7-19.7-28.9-19.6-.2,0-.3-.1-.3-.4,0-.2.1-.4.3-.4.2,0,20.3-1.9,29.4,20,0,.2,0,.4,0,.6,0,0,0,0-.2,0Z"/>
    <path class="cls-9" d="m150,66.5s2.1-.2,4.7,3.5c0,0-3.1,1.7-3,4.1,0,0-3-5.2-1.7-7.6Z"/>
  </g>
  <path class="cls-9" d="m204.7,26.3c0,.2.2.4.4.4,1.8,0,3.5.4,5.2,1,.2,0,.5,0,.5-.2h0c0-.2,0-.5-.3-.6-1.8-.6-3.6-1-5.4-1.1-.2,0-.4.2-.4.4Zm9,2.6c-.1.2,0,.5.1.6,2.4,1.5,4.5,3.6,5.9,6.1,2.5,4.2,3.2,9.4,1.9,14.1,0,.2,0,.5.3.5h0c.2,0,.5,0,.5-.3,1.4-5,.7-10.3-2-14.8-1.5-2.6-3.7-4.8-6.2-6.4-.2-.1-.5,0-.6.1h0Zm-25.3,25.3h0c-.2.1-.3.4-.1.6,1.7,2.7,4,4.9,6.7,6.4.2.1.5,0,.6-.2h0c.1-.2,0-.5-.2-.6-2.6-1.5-4.8-3.6-6.4-6.1-.1-.2-.4-.3-.6-.1Zm46.8,9.9c2.3-3.9-1.2-10.6-9.4-18,.5-8.2-3.6-15.8-10.6-20-7.1-4.1-15.7-4-22.6.5-10.5-3.4-18.1-3.2-20.3.7-2.4,4.1,1.5,11.2,10.4,19,.5,7.1,4.5,13.6,10.6,17.2,3.3,2,7.1,2.9,10.8,3,3.2,0,6.4-.7,9.4-2.1,5.5,1.9,10.2,2.9,13.9,2.9,3.9,0,6.6-1,7.8-3.1Zm-20.4-37.4c6.9,4,10.8,11.5,10.3,19.4,0,1-.2,1.9-.4,2.9-.5,2.2-1.3,4.3-2.4,6.2-.3.5-.7,1.1-1.1,1.6-5-.2-12.6-2.9-19.9-7.2-7.3-4.3-13.4-9.6-16-13.8.3-.6.6-1.2.9-1.7,1.1-1.9,2.6-3.7,4.2-5.1.7-.7,1.5-1.3,2.4-1.8,6.7-4.4,15.1-4.6,22-.5Zm10.4,23.4c1.3,2.2,1.7,3.9,1,5.1-.6,1-2,1.6-4,1.7.3-.4.5-.8.8-1.2,1-1.7,1.8-3.6,2.3-5.5Zm-39.6-16.3c-.2.4-.5.8-.7,1.3-.9-1.8-1.1-3.3-.5-4.3.7-1.2,2.4-1.7,4.9-1.7-1.4,1.4-2.7,2.9-3.7,4.7Zm8.1,28.9c-5.7-3.4-9.5-9.2-10.2-15.8,4,3.4,8.7,6.8,13.8,9.7,5,3,10.3,5.4,15.2,7.3-6.1,2.6-13,2.2-18.8-1.2Zm19.9.8c-5.1-1.8-10.6-4.4-15.9-7.5-5.3-3.1-10.3-6.6-14.4-10.2-8.6-7.5-12.6-14.5-10.4-18.2,2-3.4,9.2-3.6,18.9-.5-.6.4-1.2.8-1.7,1.3-3.2-.2-5.4.4-6.3,2-.8,1.4-.5,3.4.9,5.7,2.6,4.5,8.7,9.8,16.4,14.3,7.6,4.5,15.3,7.2,20.4,7.3,0,0,.2,0,.2,0,2.6,0,4.4-.7,5.2-2,.9-1.6.4-3.8-1.4-6.5.1-.7.2-1.4.3-2.1,7.4,6.9,10.8,13.3,8.8,16.7-2.2,3.7-10.2,3.6-20.9-.2Z"/>
  <g>
    <path class="cls-16" d="m117.8,143.1c2,.8,3,1.3,3.1,1.4h0s0,0,0,0h0c.1,0,1.2-.6,3.1-1.4,0,0,0,0,0,0,1.8-.7,4.4-1.6,7.7-2.5h0c14-3.6,46.9-5.2,85.9,11.1l-7,10.3-2.1,3.1s-62.3-19.9-81.6-13.1c0,0-1.8-2.9-6-2.8-4.2,0-5.9,2.9-5.9,2.9-19.4-6.6-79.9,15.1-79.9,15.1l-2.2-3.1-7.1-10.2c38.9-16.8,70.1-16.6,84.2-13.2,0,0,0,0,0,0,3.3.8,5.9,1.7,7.7,2.4Z"/>
    <polygon class="cls-15" points="210.7 162 213.4 166.7 208.6 165.2 210.7 162"/>
    <path class="cls-13" d="m213.4,166.7l-4.1,5.1s-46.3-22.6-82.2-17.1c0,0-1.9-3.5-6-3.5-2.3,0-3.9,1.1-4.9,2.1l-1.1-1.2s1.7-2.9,5.9-2.9c4.2,0,6,2.8,6,2.8,19.3-6.8,81.6,13.1,81.6,13.1l4.8,1.5Z"/>
    <path class="cls-6" d="m196.9,133.6s-36.6-12-72.7,9.5c1.8-.7,4.4-1.6,7.7-2.5h0c14-3.6,46.9-5.2,85.9,11.1l-20.9-18.2Z"/>
    <path class="cls-12" d="m199.2,124.5l-16.7-20.7s-34.4-.2-57.6,37.8c2.9-2.1,5.9-4,8.8-5.6,0,0,0,0,0,0,23.3-12.7,46.1-9.8,60.5-5.5,9.5,2.8,15.3,6.3,15.3,6.3l-10.2-12.3Z"/>
    <path class="cls-2" d="m194.1,130.5l2.8,3s-36.6-12-72.7,9.5c0,0,0,0,0,0-1.9.8-2.9,1.3-3.1,1.4,1.3-1,2.5-2,3.8-2.9,2.9-2.1,5.9-4,8.8-5.6,0,0,0,0,0,0,23.3-12.7,46.1-9.8,60.5-5.5Z"/>
    <path class="cls-2" d="m181.2,102.2l1.3,1.6s-34.3.2-57.6,37.8c-1.3.9-2.5,1.9-3.8,2.9h0s0,0,0,0h0s0,0,0,0h0c.1-.1,19.9-46.7,60.1-42.3Z"/>
    <path class="cls-11" d="m170.6,79.8c-2.1-.2-22.9,3.3-29.8,7.7,0,0-15.3,42.3,1.6,29.2,0,0,.1-.1.2-.2.2-.2.4-.3.6-.5,0,0,.1-.1.2-.2,24.9-19.8,52.9-11.4,57.1-10.1l-29.9-26Z"/>
    <path class="cls-12" d="m140.9,87.5s-15.3,42.3,1.6,29.2c-3.4,2.8-6.3,5.7-8.9,8.7,0,0,0,0,0,0-.4.4-9.3,10.1-8.8-.5.5-10.8,2.7-24.8,6.6-29.5,2.6-2.7,5.8-5.5,9.6-7.9Z"/>
    <path class="cls-6" d="m124.7,124.9c-.5,10.6,8.5.9,8.8.5-8.3,9.5-12.3,18.5-12.5,19.1h0s0,0,0,0h0s0,0,0,0l-.2-32.9s2.9-8.1,10.5-16.1c-3.9,4.7-6.1,18.6-6.6,29.5Z"/>
    <path class="cls-6" d="m120.8,111.6l.2,32.9h0s0,0,0,0h0c-.3-.6-4.3-9.5-12.7-18.9,1,1.1,9.3,9.5,8.7-.7-.6-10.8-3-24.7-6.9-29.4,7.7,7.9,10.7,16,10.7,16Z"/>
    <path class="cls-2" d="m121,144.5h0c-1.3-1-2.6-2-3.8-2.9-33.3-31.8-59.4-35.8-59.4-35.8l2-2.4c43.6-.4,61.3,41,61.3,41Z"/>
    <path class="cls-2" d="m121,144.5c-.1,0-1.2-.6-3.1-1.4-36-20.9-72.1-8.9-72.8-8.7l2.7-3.1c14.4-4.5,37.1-7.7,60.5,4.8,0,0,0,0,0,0,3,1.6,5.9,3.4,8.9,5.5,1.3.9,2.6,1.9,3.8,2.9Z"/>
    <path class="cls-12" d="m117.1,124.9c.6,10.2-7.7,1.8-8.7.7,0,0-.1-.1-.1-.1-2.6-2.9-5.6-5.8-9-8.6,17.1,12.9,1.2-29.2,1.2-29.2h0c3.8,2.3,7,5.1,9.7,7.8,4,4.6,6.3,18.6,6.9,29.4Z"/>
    <path class="cls-13" d="m115.1,152.2l1.1,1.2c-.7.8-1.1,1.4-1.1,1.4-31.2-6.6-80.6,18.1-80.6,18.1l-4.1-4,4.8-1.6s60.5-21.7,79.9-15.1Z"/>
    <path class="cls-6" d="m45,134.4h0l-19.1,19.5c38.9-16.8,70.1-16.6,84.2-13.2,0,0,0,0,0,0,3.3.8,5.9,1.7,7.7,2.4-36.9-21.9-72.1-8.9-72.8-8.7Z"/>
    <path class="cls-12" d="m57.7,105.8l-15.1,19.6-10.1,12.4s5.8-3.5,15.2-6.4c14.4-4.5,37.1-7.7,60.5,4.8,0,0,0,0,0,0,3,1.6,5.9,3.4,8.9,5.5-30.6-39.5-59.4-35.8-59.4-35.8Z"/>
    <path class="cls-11" d="m100.5,87.8h0c-16.5-8.8-28.5-6.2-30.5-6l-29,25c24.2-6.8,47,1.5,57.3,9.4,0,0,.1.1.2.2.2.1.4.3.6.5,0,0,.2.1.2.2,17.1,12.9,1.2-29.2,1.2-29.2Z"/>
    <polygon class="cls-15" points="33.1 164.2 35.2 167.3 30.5 168.9 33.1 164.2"/>
    <path class="cls-16" d="m120.8,111.6c.6,10.9.7,22,.2,32.9-.6-11-.7-22-.2-32.9h0Z"/>
  </g>
  <polygon class="cls-8" points="192.1 79.5 193.1 81.6 195.5 81.9 193.8 83.6 194.2 85.9 192.1 84.8 190.1 85.9 190.5 83.6 188.8 81.9 191.1 81.6 192.1 79.5"/>
  <polygon class="cls-8" points="19.1 120.8 20.1 122.9 22.4 123.2 20.7 124.9 21.1 127.2 19.1 126.1 17 127.2 17.4 124.9 15.7 123.2 18 122.9 19.1 120.8"/>
  <polygon class="cls-8" points="83 12.3 84 14.4 86.3 14.7 84.7 16.3 85.1 18.6 83 17.6 80.9 18.6 81.3 16.3 79.7 14.7 82 14.4 83 12.3"/>
  <polygon class="cls-8" points="154.9 23.5 155.9 25.6 158.2 26 156.5 27.6 156.9 29.9 154.9 28.8 152.8 29.9 153.2 27.6 151.5 26 153.8 25.6 154.9 23.5"/>
  <polygon class="cls-8" points="216.5 110.1 217.6 112.1 219.9 112.5 218.2 114.1 218.6 116.4 216.5 115.3 214.5 116.4 214.9 114.1 213.2 112.5 215.5 112.1 216.5 110.1"/>
  <polygon class="cls-8" points="83 62.2 83.6 63.4 84.9 63.6 83.9 64.5 84.2 65.8 83 65.2 81.8 65.8 82.1 64.5 81.1 63.6 82.4 63.4 83 62.2"/>
  <polygon class="cls-8" points="176.6 12.9 177.2 14.1 178.5 14.2 177.5 15.2 177.7 16.5 176.6 15.8 175.4 16.5 175.6 15.2 174.7 14.2 176 14.1 176.6 12.9"/>
  <polygon class="cls-8" points="138.3 14.7 138.9 15.8 140.2 16 139.3 17 139.5 18.2 138.3 17.6 137.2 18.2 137.4 17 136.4 16 137.7 15.8 138.3 14.7"/>
  <polygon class="cls-8" points="104.1 15.6 104.7 16.8 106 17 105 17.9 105.3 19.2 104.1 18.6 102.9 19.2 103.2 17.9 102.2 17 103.5 16.8 104.1 15.6"/>
  <polygon class="cls-8" points="10.3 72.1 10.9 73.3 12.2 73.5 11.2 74.4 11.5 75.7 10.3 75.1 9.1 75.7 9.4 74.4 8.4 73.5 9.7 73.3 10.3 72.1"/>
  <polygon class="cls-8" points="222.1 78 222.9 79.7 224.8 80 223.4 81.3 223.8 83.2 222.1 82.3 220.4 83.2 220.7 81.3 219.4 80 221.3 79.7 222.1 78"/>
  <polygon class="cls-8" points="25 89.3 26.8 92.9 30.8 93.5 27.9 96.3 28.6 100.3 25 98.4 21.5 100.3 22.1 96.3 19.3 93.5 23.2 92.9 25 89.3"/>
  <g>
    <path class="cls-1" d="m125,164.7v23.1h-7.2v-11.5l-3.6,11.5h-6.2l-3.6-11.5v11.5h-7.2v-23.1h8.9l5.1,13.9,5-13.9h8.8Z"/>
    <path class="cls-1" d="m150.4,164.7l-8.3,16.1v7h-7.2v-7l-8.3-16.1h8.3l3.7,8.2,3.7-8.2h8.2Z"/>
    <path class="cls-1" d="m58.1,225.2c-1.8-1.3-2.8-3.2-2.9-5.7h7.7c.1,1.3.7,2,1.8,2s.7,0,1-.3c.3-.2.4-.5.4-.9s-.3-1-.9-1.3c-.6-.3-1.5-.7-2.7-1.2-1.5-.5-2.7-1-3.7-1.5s-1.8-1.2-2.5-2.2c-.7-1-1-2.2-1-3.7,0-1.5.4-2.8,1.2-3.8s1.8-1.9,3.2-2.4c1.3-.5,2.8-.8,4.5-.8,2.8,0,5.1.7,6.7,2s2.5,3.1,2.6,5.5h-7.8c0-.7-.2-1.1-.5-1.4-.3-.3-.7-.4-1.1-.4s-.6.1-.8.3c-.2.2-.3.5-.3.9s.3,1,.9,1.3c.6.3,1.5.7,2.8,1.2,1.5.5,2.7,1.1,3.6,1.6.9.5,1.8,1.2,2.5,2.1.7.9,1,2,1,3.4s-.3,2.7-1,3.8c-.7,1.1-1.7,2-3,2.6s-2.9.9-4.7.9c-2.8,0-5-.6-6.8-1.9Z"/>
    <path class="cls-1" d="m77,209.2c.9-1.8,2.2-3.2,4-4.2,1.7-1,3.7-1.5,6.1-1.5s3.8.4,5.4,1.1c1.6.8,2.9,1.8,3.8,3.2,1,1.4,1.6,3,2,4.8h-7.6c-.3-.8-.8-1.4-1.5-1.8-.6-.4-1.4-.6-2.2-.6-1.2,0-2.2.5-2.9,1.4-.7.9-1.1,2.1-1.1,3.7s.4,2.8,1.1,3.7c.7.9,1.7,1.4,2.9,1.4s1.6-.2,2.2-.6c.6-.4,1.1-1,1.5-1.8h7.6c-.3,1.8-1,3.4-2,4.8-1,1.4-2.3,2.4-3.8,3.2-1.6.8-3.4,1.1-5.4,1.1s-4.3-.5-6.1-1.5c-1.7-1-3-2.4-4-4.2s-1.4-3.8-1.4-6.1.5-4.3,1.4-6.1Z"/>
    <path class="cls-1" d="m122.2,203.8v23.1h-7.2v-9h-6.9v9h-7.2v-23.1h7.2v8.3h6.9v-8.3h7.2Z"/>
    <path class="cls-1" d="m130.7,225.6c-1.8-1-3.3-2.4-4.3-4.2-1.1-1.8-1.6-3.8-1.6-6.1s.5-4.3,1.6-6.1c1.1-1.8,2.5-3.2,4.3-4.2,1.8-1,3.8-1.5,6-1.5s4.2.5,6,1.5c1.8,1,3.2,2.4,4.3,4.2,1.1,1.8,1.6,3.8,1.6,6.1s-.5,4.3-1.6,6.1c-1.1,1.8-2.5,3.2-4.3,4.2-1.8,1-3.8,1.5-6,1.5s-4.2-.5-6-1.5Zm9.3-6.6c.8-.9,1.2-2.2,1.2-3.7s-.4-2.8-1.2-3.8-1.9-1.4-3.3-1.4-2.6.5-3.4,1.4-1.2,2.2-1.2,3.8.4,2.8,1.2,3.7,1.9,1.4,3.4,1.4,2.5-.5,3.3-1.4Z"/>
    <path class="cls-1" d="m156.4,225.6c-1.8-1-3.3-2.4-4.3-4.2-1.1-1.8-1.6-3.8-1.6-6.1s.5-4.3,1.6-6.1c1.1-1.8,2.5-3.2,4.3-4.2,1.8-1,3.8-1.5,6-1.5s4.2.5,6,1.5c1.8,1,3.2,2.4,4.3,4.2,1.1,1.8,1.6,3.8,1.6,6.1s-.5,4.3-1.6,6.1c-1.1,1.8-2.5,3.2-4.3,4.2s-3.8,1.5-6,1.5-4.2-.5-6-1.5Zm9.3-6.6c.8-.9,1.2-2.2,1.2-3.7s-.4-2.8-1.2-3.8c-.8-.9-1.9-1.4-3.3-1.4s-2.6.5-3.4,1.4c-.8.9-1.2,2.2-1.2,3.8s.4,2.8,1.2,3.7c.8.9,1.9,1.4,3.4,1.4s2.5-.5,3.3-1.4Z"/>
    <path class="cls-1" d="m184.1,221.4h7v5.5h-14.2v-23.1h7.2v17.6Z"/>
  </g>
</svg>